<svg xmlns="http://www.w3.org/2000/svg" xmlns:xlink="http://www.w3.org/1999/xlink" width="906" zoomAndPan="magnify" viewBox="0 0 679.5 279.749983" height="373" preserveAspectRatio="xMidYMid meet" version="1.0"><defs><clipPath id="ad3d4a5c30"><path d="M 0.0546875 0 L 678.945312 0 L 678.945312 279.5 L 0.0546875 279.5 Z M 0.0546875 0 " clip-rule="nonzero"/></clipPath><clipPath id="d26edaf6b1"><path d="M 12.792969 0 L 666.207031 0 C 669.585938 0 672.828125 1.34375 675.214844 3.730469 C 677.605469 6.121094 678.945312 9.359375 678.945312 12.738281 L 678.945312 266.761719 C 678.945312 270.140625 677.605469 273.378906 675.214844 275.769531 C 672.828125 278.15625 669.585938 279.5 666.207031 279.5 L 12.792969 279.5 C 9.414062 279.5 6.171875 278.15625 3.785156 275.769531 C 1.394531 273.378906 0.0546875 270.140625 0.0546875 266.761719 L 0.0546875 12.738281 C 0.0546875 9.359375 1.394531 6.121094 3.785156 3.730469 C 6.171875 1.34375 9.414062 0 12.792969 0 Z M 12.792969 0 " clip-rule="nonzero"/></clipPath><clipPath id="6ab4d7805a"><path d="M 0.0546875 0 L 678.945312 0 L 678.945312 279.5 L 0.0546875 279.5 Z M 0.0546875 0 " clip-rule="nonzero"/></clipPath><clipPath id="516c29b2b1"><path d="M 12.792969 0 L 666.207031 0 C 669.585938 0 672.828125 1.34375 675.214844 3.730469 C 677.605469 6.121094 678.945312 9.359375 678.945312 12.738281 L 678.945312 266.761719 C 678.945312 270.140625 677.605469 273.378906 675.214844 275.769531 C 672.828125 278.15625 669.585938 279.5 666.207031 279.5 L 12.792969 279.5 C 9.414062 279.5 6.171875 278.15625 3.785156 275.769531 C 1.394531 273.378906 0.0546875 270.140625 0.0546875 266.761719 L 0.0546875 12.738281 C 0.0546875 9.359375 1.394531 6.121094 3.785156 3.730469 C 6.171875 1.34375 9.414062 0 12.792969 0 Z M 12.792969 0 " clip-rule="nonzero"/></clipPath><clipPath id="363441446e"><rect x="0" width="679" y="0" height="280"/></clipPath><clipPath id="38e6a8b54d"><path d="M 255 85.050781 L 424 85.050781 L 424 143 L 255 143 Z M 255 85.050781 " clip-rule="nonzero"/></clipPath><clipPath id="ae30fbe49d"><path d="M 248 156 L 415 156 L 415 194.453125 L 248 194.453125 Z M 248 156 " clip-rule="nonzero"/></clipPath><clipPath id="46b12e7de2"><path d="M 396 153 L 431.363281 153 L 431.363281 188 L 396 188 Z M 396 153 " clip-rule="nonzero"/></clipPath></defs><g clip-path="url(#ad3d4a5c30)"><g clip-path="url(#d26edaf6b1)"><g transform="matrix(1, 0, 0, 1, 0, -0.000000000000016386)"><g clip-path="url(#363441446e)"><g clip-path="url(#6ab4d7805a)"><g clip-path="url(#516c29b2b1)"><path fill="#ffffff" d="M 0.0546875 0 L 679.152344 0 L 679.152344 279.5 L 0.0546875 279.5 Z M 0.0546875 0 " fill-opacity="1" fill-rule="nonzero"/></g></g></g></g></g></g><g clip-path="url(#38e6a8b54d)"><path fill="#232f3e" d="M 299.625 124.761719 C 299.5625 126.609375 299.792969 128.417969 300.3125 130.191406 C 300.847656 131.703125 301.503906 133.160156 302.285156 134.5625 C 302.550781 134.984375 302.691406 135.445312 302.710938 135.941406 C 302.675781 136.324219 302.554688 136.675781 302.351562 137 C 302.144531 137.320312 301.875 137.578125 301.542969 137.765625 L 297.707031 140.316406 C 297.222656 140.648438 296.691406 140.828125 296.105469 140.851562 C 295.375 140.832031 294.765625 140.546875 294.277344 140 C 293.425781 139.152344 292.699219 138.214844 292.09375 137.175781 C 291.492188 136.152344 290.871094 134.960938 290.230469 133.613281 C 285.46875 139.222656 279.503906 142.027344 272.332031 142.027344 C 267.21875 142.027344 263.167969 140.570312 260.1875 137.65625 C 257.203125 134.746094 255.710938 130.84375 255.710938 125.945312 C 255.710938 120.769531 257.558594 116.601562 261.25 113.4375 C 264.945312 110.273438 269.917969 108.695312 276.167969 108.699219 C 278.324219 108.703125 280.472656 108.863281 282.609375 109.179688 C 284.847656 109.496094 287.175781 109.9375 289.589844 110.503906 L 289.589844 106.039062 C 289.589844 101.421875 288.628906 98.179688 286.710938 96.304688 C 284.792969 94.429688 281.488281 93.484375 276.800781 93.464844 C 274.582031 93.472656 272.398438 93.738281 270.242188 94.261719 C 268.015625 94.792969 265.839844 95.488281 263.714844 96.339844 C 263.027344 96.660156 262.316406 96.925781 261.585938 97.136719 C 261.273438 97.230469 260.953125 97.285156 260.628906 97.304688 C 259.777344 97.304688 259.351562 96.664062 259.351562 95.386719 L 259.351562 92.40625 C 259.289062 91.65625 259.433594 90.945312 259.777344 90.277344 C 260.238281 89.707031 260.808594 89.28125 261.480469 89 C 263.945312 87.8125 266.5 86.886719 269.152344 86.230469 C 272.261719 85.425781 275.417969 85.035156 278.625 85.050781 C 285.871094 85.050781 291.179688 86.699219 294.550781 90.003906 C 297.925781 93.304688 299.613281 98.289062 299.617188 104.960938 Z M 274.90625 134.027344 C 277.0625 134 279.15625 133.625 281.1875 132.90625 C 283.460938 132.132812 285.378906 130.835938 286.941406 129.019531 C 287.941406 127.886719 288.632812 126.59375 289.019531 125.136719 C 289.449219 123.40625 289.652344 121.652344 289.628906 119.867188 L 289.628906 117.308594 C 287.78125 116.871094 285.914062 116.53125 284.03125 116.296875 C 282.140625 116.054688 280.242188 115.933594 278.332031 115.925781 C 274.273438 115.925781 271.253906 116.738281 269.273438 118.359375 C 267.292969 119.980469 266.300781 122.324219 266.292969 125.386719 C 266.292969 128.226562 267.039062 130.375 268.53125 131.828125 C 270.027344 133.285156 272.152344 134.019531 274.90625 134.027344 Z M 323.804688 140.628906 C 322.957031 140.6875 322.175781 140.484375 321.460938 140.019531 C 320.796875 139.347656 320.367188 138.546875 320.183594 137.621094 L 305.90625 90.5625 C 305.636719 89.769531 305.460938 88.960938 305.375 88.128906 C 305.347656 87.921875 305.363281 87.722656 305.429688 87.523438 C 305.496094 87.328125 305.601562 87.15625 305.75 87.007812 C 305.894531 86.863281 306.066406 86.757812 306.265625 86.691406 C 306.460938 86.625 306.664062 86.609375 306.867188 86.636719 L 312.835938 86.636719 C 313.703125 86.5625 314.5 86.765625 315.226562 87.246094 C 315.851562 87.933594 316.257812 88.730469 316.445312 89.636719 L 326.671875 129.890625 L 336.164062 89.648438 C 336.449219 88.433594 336.839844 87.648438 337.339844 87.257812 C 338.082031 86.785156 338.894531 86.585938 339.773438 86.648438 L 344.675781 86.648438 C 345.554688 86.585938 346.363281 86.789062 347.109375 87.257812 C 347.601562 87.664062 347.992188 88.460938 348.277344 89.648438 L 357.867188 130.410156 L 368.417969 89.648438 C 368.605469 88.738281 369.007812 87.941406 369.636719 87.257812 C 370.363281 86.777344 371.164062 86.574219 372.035156 86.648438 L 377.679688 86.648438 C 377.882812 86.621094 378.085938 86.636719 378.28125 86.703125 C 378.480469 86.769531 378.652344 86.875 378.796875 87.019531 C 378.945312 87.167969 379.050781 87.339844 379.117188 87.535156 C 379.183594 87.734375 379.199219 87.933594 379.167969 88.140625 C 379.164062 88.460938 379.128906 88.78125 379.066406 89.09375 C 378.953125 89.601562 378.808594 90.097656 378.640625 90.585938 L 363.9375 137.644531 C 363.746094 138.570312 363.320312 139.371094 362.660156 140.042969 C 361.945312 140.507812 361.164062 140.710938 360.316406 140.652344 L 355.089844 140.652344 C 354.203125 140.730469 353.390625 140.515625 352.65625 140.011719 C 352.015625 139.320312 351.625 138.511719 351.480469 137.578125 L 342.003906 98.402344 L 332.625 137.578125 C 332.484375 138.511719 332.09375 139.320312 331.453125 140.011719 C 330.714844 140.515625 329.902344 140.726562 329.015625 140.652344 Z M 402.003906 142.226562 C 398.839844 142.230469 395.714844 141.875 392.628906 141.164062 C 390.175781 140.675781 387.832031 139.863281 385.597656 138.730469 C 385.253906 138.597656 384.9375 138.414062 384.648438 138.179688 C 384.359375 137.949219 384.113281 137.675781 383.914062 137.367188 C 383.710938 137.058594 383.558594 136.726562 383.460938 136.367188 C 383.363281 136.011719 383.324219 135.648438 383.339844 135.277344 L 383.339844 132.238281 C 383.339844 130.964844 383.796875 130.328125 384.722656 130.328125 C 385.109375 130.328125 385.480469 130.402344 385.84375 130.539062 C 386.230469 130.679688 386.75 130.894531 387.386719 131.148438 C 389.542969 132.105469 391.773438 132.816406 394.085938 133.277344 C 396.472656 133.773438 398.890625 134.023438 401.328125 134.027344 C 405.164062 134.027344 408.128906 133.351562 410.222656 132.007812 C 410.71875 131.710938 411.167969 131.355469 411.566406 130.941406 C 411.964844 130.527344 412.304688 130.066406 412.582031 129.558594 C 412.859375 129.054688 413.0625 128.519531 413.199219 127.960938 C 413.332031 127.402344 413.390625 126.832031 413.371094 126.257812 C 413.394531 125.464844 413.261719 124.699219 412.976562 123.960938 C 412.6875 123.222656 412.269531 122.566406 411.714844 121.996094 C 410.617188 120.863281 408.574219 119.796875 405.589844 118.804688 L 396.75 116.035156 C 392.285156 114.613281 389.039062 112.550781 387.011719 109.855469 C 386.027344 108.589844 385.273438 107.203125 384.753906 105.691406 C 384.230469 104.175781 383.96875 102.621094 383.964844 101.019531 C 383.917969 98.621094 384.464844 96.367188 385.617188 94.261719 C 386.726562 92.292969 388.183594 90.621094 389.980469 89.253906 C 391.902344 87.816406 394.015625 86.769531 396.324219 86.113281 C 398.832031 85.390625 401.386719 85.035156 403.996094 85.050781 C 405.367188 85.050781 406.734375 85.140625 408.09375 85.316406 C 409.480469 85.496094 410.796875 85.726562 412.039062 86.011719 C 413.257812 86.289062 414.4375 86.621094 415.503906 86.964844 C 416.386719 87.246094 417.238281 87.601562 418.058594 88.03125 C 418.769531 88.402344 419.378906 88.898438 419.886719 89.523438 C 420.28125 90.140625 420.460938 90.816406 420.421875 91.546875 L 420.421875 94.417969 C 420.421875 95.695312 419.960938 96.335938 419.035156 96.335938 C 418.203125 96.238281 417.421875 95.992188 416.691406 95.59375 C 412.953125 93.96875 409.046875 93.1875 404.96875 93.25 C 401.488281 93.25 398.789062 93.816406 396.875 94.949219 C 394.957031 96.078125 394 97.890625 394 100.382812 C 393.988281 101.195312 394.140625 101.980469 394.457031 102.730469 C 394.773438 103.480469 395.230469 104.136719 395.828125 104.695312 C 397.042969 105.863281 399.277344 106.980469 402.523438 108.046875 L 411.148438 110.816406 C 415.554688 112.238281 418.695312 114.191406 420.578125 116.675781 C 421.515625 117.894531 422.222656 119.238281 422.707031 120.695312 C 423.191406 122.15625 423.425781 123.65625 423.40625 125.191406 C 423.445312 127.679688 422.910156 130.039062 421.804688 132.269531 C 420.726562 134.386719 419.253906 136.179688 417.382812 137.644531 C 415.351562 139.21875 413.09375 140.355469 410.621094 141.054688 C 407.804688 141.859375 404.933594 142.25 402.003906 142.226562 Z M 402.003906 142.226562 " fill-opacity="1" fill-rule="nonzero"/></g><g clip-path="url(#ae30fbe49d)"><path fill="#ff9900" d="M 413.523438 171.8125 C 393.476562 186.589844 364.417969 194.453125 339.390625 194.453125 C 304.324219 194.453125 272.738281 181.5 248.84375 159.929688 C 246.960938 158.238281 248.636719 155.929688 250.894531 157.234375 C 276.679688 172.234375 308.566406 181.261719 341.496094 181.261719 C 353.367188 181.203125 365.121094 179.988281 376.75 177.609375 C 388.382812 175.230469 399.667969 171.738281 410.609375 167.128906 C 413.992188 165.699219 416.824219 169.347656 413.523438 171.8125 Z M 413.523438 171.8125 " fill-opacity="1" fill-rule="evenodd"/></g><g clip-path="url(#46b12e7de2)"><path fill="#ff9900" d="M 421.863281 162.292969 C 419.296875 159.011719 404.914062 160.742188 398.457031 161.511719 C 396.496094 161.75 396.191406 160.039062 397.957031 158.800781 C 409.433594 150.746094 428.234375 153.074219 430.417969 155.757812 C 432.605469 158.441406 429.839844 177.3125 419.089844 186.300781 C 417.433594 187.6875 415.855469 186.945312 416.59375 185.121094 C 419.007812 179.082031 424.425781 165.578125 421.863281 162.292969 Z M 421.863281 162.292969 " fill-opacity="1" fill-rule="evenodd"/></g></svg>