<svg xmlns="http://www.w3.org/2000/svg" xmlns:xlink="http://www.w3.org/1999/xlink" width="906" zoomAndPan="magnify" viewBox="0 0 679.5 279.749983" height="373" preserveAspectRatio="xMidYMid meet" version="1.0"><defs><clipPath id="92b4ee4381"><path d="M 0.0546875 0 L 678.945312 0 L 678.945312 279.5 L 0.0546875 279.5 Z M 0.0546875 0 " clip-rule="nonzero"/></clipPath><clipPath id="23a841204e"><path d="M 12.792969 0 L 666.207031 0 C 669.585938 0 672.828125 1.34375 675.214844 3.730469 C 677.605469 6.121094 678.945312 9.359375 678.945312 12.738281 L 678.945312 266.761719 C 678.945312 270.140625 677.605469 273.378906 675.214844 275.769531 C 672.828125 278.15625 669.585938 279.5 666.207031 279.5 L 12.792969 279.5 C 9.414062 279.5 6.171875 278.15625 3.785156 275.769531 C 1.394531 273.378906 0.0546875 270.140625 0.0546875 266.761719 L 0.0546875 12.738281 C 0.0546875 9.359375 1.394531 6.121094 3.785156 3.730469 C 6.171875 1.34375 9.414062 0 12.792969 0 Z M 12.792969 0 " clip-rule="nonzero"/></clipPath><clipPath id="d105598da0"><path d="M 0.0546875 0 L 678.945312 0 L 678.945312 279.5 L 0.0546875 279.5 Z M 0.0546875 0 " clip-rule="nonzero"/></clipPath><clipPath id="695d3b30ec"><path d="M 12.792969 0 L 666.207031 0 C 669.585938 0 672.828125 1.34375 675.214844 3.730469 C 677.605469 6.121094 678.945312 9.359375 678.945312 12.738281 L 678.945312 266.761719 C 678.945312 270.140625 677.605469 273.378906 675.214844 275.769531 C 672.828125 278.15625 669.585938 279.5 666.207031 279.5 L 12.792969 279.5 C 9.414062 279.5 6.171875 278.15625 3.785156 275.769531 C 1.394531 273.378906 0.0546875 270.140625 0.0546875 266.761719 L 0.0546875 12.738281 C 0.0546875 9.359375 1.394531 6.121094 3.785156 3.730469 C 6.171875 1.34375 9.414062 0 12.792969 0 Z M 12.792969 0 " clip-rule="nonzero"/></clipPath><clipPath id="8a84e6cf85"><rect x="0" width="679" y="0" height="280"/></clipPath><clipPath id="1a2b646017"><path d="M 47.410156 86 L 631.890625 86 L 631.890625 194 L 47.410156 194 Z M 47.410156 86 " clip-rule="nonzero"/></clipPath></defs><g clip-path="url(#92b4ee4381)"><g clip-path="url(#23a841204e)"><g transform="matrix(1, 0, 0, 1, 0, -0.000000000000016386)"><g clip-path="url(#8a84e6cf85)"><g clip-path="url(#d105598da0)"><g clip-path="url(#695d3b30ec)"><path fill="#ffffff" d="M 0.0546875 0 L 679.152344 0 L 679.152344 279.5 L 0.0546875 279.5 Z M 0.0546875 0 " fill-opacity="1" fill-rule="nonzero"/></g></g></g></g></g></g><g clip-path="url(#1a2b646017)"><path fill="#002470" d="M 48.15625 86.875 L 49.613281 91.613281 L 49.613281 187.886719 L 47.789062 191.171875 L 83.90625 191.171875 C 109.082031 191.171875 130.242188 170.75 130.242188 136.105469 C 130.242188 110.941406 117.835938 88.332031 91.570312 86.507812 Z M 68.21875 97.085938 L 79.894531 97.085938 C 97.40625 97.085938 109.808594 107.292969 109.808594 136.105469 C 109.808594 171.476562 95.21875 178.769531 78.433594 178.769531 L 68.21875 178.769531 Z M 246.621094 96.355469 L 268.875 96.355469 L 272.15625 98.90625 L 275.804688 87.238281 L 201.746094 87.238281 L 199.191406 99.636719 L 205.03125 97.085938 L 226.1875 97.085938 L 226.1875 188.617188 L 224.730469 192.265625 L 248.808594 192.265625 L 247.347656 188.617188 L 247.347656 96.355469 Z M 414.4375 174.394531 C 408.964844 180.960938 402.035156 184.242188 394.375 184.242188 C 375.402344 184.242188 365.1875 167.464844 365.1875 141.210938 C 365.1875 118.601562 373.214844 94.894531 393.277344 94.894531 C 401.304688 94.894531 408.964844 99.636719 413.34375 108.390625 L 414.804688 108.390625 L 414.804688 92.707031 C 407.871094 87.96875 400.941406 86.144531 392.550781 86.144531 C 366.28125 86.144531 344.027344 104.011719 344.027344 143.761719 C 344.027344 175.125 364.09375 193.359375 389.632812 193.359375 C 397.65625 193.359375 406.414062 193.359375 413.710938 188.617188 L 413.710938 173.664062 L 413.710938 174.394531 Z M 512.578125 139.023438 C 512.578125 115.316406 502.363281 86.144531 467.339844 86.144531 C 437.058594 86.144531 419.546875 109.117188 419.546875 139.386719 C 419.546875 173.664062 437.789062 193.359375 464.785156 193.359375 C 494.335938 193.359375 512.578125 168.925781 512.578125 139.023438 M 466.609375 95.261719 C 484.851562 95.261719 491.78125 116.410156 491.78125 136.105469 C 491.78125 161.265625 483.757812 184.605469 464.785156 184.605469 C 446.542969 184.605469 439.613281 164.183594 439.613281 144.855469 C 439.976562 109.484375 450.191406 95.261719 466.609375 95.261719 M 573.867188 161.632812 L 543.222656 86.875 L 526.441406 86.875 L 527.898438 90.15625 L 520.96875 186.429688 L 519.507812 191.167969 L 532.277344 191.167969 L 537.019531 125.894531 L 566.207031 191.167969 L 573.136719 191.167969 L 601.59375 126.621094 L 607.066406 191.167969 L 631.144531 191.167969 L 629.6875 186.792969 L 620.566406 89.425781 L 620.929688 86.875 L 604.148438 86.875 Z M 183.503906 160.539062 L 193.71875 191.898438 L 217.433594 191.898438 L 214.878906 189.347656 L 178.761719 87.238281 L 158.332031 87.238281 L 160.519531 93.074219 L 126.957031 188.253906 L 125.496094 190.804688 L 140.089844 190.804688 L 150.304688 159.441406 L 183.871094 159.441406 L 183.871094 160.539062 Z M 154.320312 148.136719 L 166.722656 111.671875 L 179.492188 148.136719 Z M 314.476562 160.539062 L 324.691406 191.898438 L 348.40625 191.898438 L 345.851562 188.617188 L 309.371094 86.875 L 288.9375 86.875 L 291.128906 92.707031 L 257.5625 187.886719 L 256.105469 190.441406 L 270.699219 190.441406 L 280.914062 159.078125 L 314.476562 159.078125 C 314.476562 159.441406 314.476562 160.539062 314.476562 160.539062 Z M 284.5625 148.136719 L 296.964844 111.671875 L 309.734375 148.136719 Z M 284.5625 148.136719 " fill-opacity="1" fill-rule="nonzero"/></g></svg>